<?xml version="1.0" encoding="UTF-8" standalone="no"?>
<!DOCTYPE svg PUBLIC "-//W3C//DTD SVG 1.1//EN" "http://www.w3.org/Graphics/SVG/1.1/DTD/svg11.dtd">
<!-- Generated by graphviz version 2.40.1 (20161225.0304)
 -->
<!-- Title: %0 Pages: 1 -->
<svg xmlns="http://www.w3.org/2000/svg" xmlns:xlink="http://www.w3.org/1999/xlink" width="1185pt" height="679pt" viewBox="0.00 0.00 1184.66 679.20">
  <g id="graph0" class="graph" transform="scale(1 1) rotate(0) translate(4 675.2)">
    <title>%0</title>
    <polygon fill="#ffffff" stroke="transparent" points="-4,4 -4,-675.2 1180.6576,-675.2 1180.6576,4 -4,4"/>
    <!-- 1 -->
    <g id="node1" class="node">
      <title>1</title>
      <g id="a_node1">
        <a xlink:title="- name: Delta Smelt &#10;USFWS &#10; CDFW &#10; Fish Collection Facilities">
          <path fill="#ffffff" stroke="#000000" d="M157.9937,-198.9003C157.9937,-198.9003 12.0021,-198.9003 12.0021,-198.9003 6.0021,-198.9003 .0021,-192.9003 .0021,-186.9003 .0021,-186.9003 .0021,-135.4997 .0021,-135.4997 .0021,-129.4997 6.0021,-123.4997 12.0021,-123.4997 12.0021,-123.4997 157.9937,-123.4997 157.9937,-123.4997 163.9937,-123.4997 169.9937,-129.4997 169.9937,-135.4997 169.9937,-135.4997 169.9937,-186.9003 169.9937,-186.9003 169.9937,-192.9003 163.9937,-198.9003 157.9937,-198.9003"/>
          <text text-anchor="middle" x="84.9979" y="-182.2" font-family="Helvetica,sans-Serif" font-size="14.00" fill="#000000">Delta Smelt </text>
          <text text-anchor="middle" x="84.9979" y="-165.4" font-family="Helvetica,sans-Serif" font-size="14.00" fill="#000000">USFWS </text>
          <text text-anchor="middle" x="84.9979" y="-148.6" font-family="Helvetica,sans-Serif" font-size="14.00" fill="#000000"> CDFW </text>
          <text text-anchor="middle" x="84.9979" y="-131.8" font-family="Helvetica,sans-Serif" font-size="14.00" fill="#000000"> Fish Collection Facilities</text>
        </a>
      </g>
    </g>
    <!-- 2 -->
    <g id="node2" class="node">
      <title>2</title>
      <g id="a_node2">
        <a xlink:title="- name: DOP Subsampling">
          <path fill="#ffffff" stroke="#000000" d="M325.1915,-225.2C325.1915,-225.2 217.9305,-225.2 217.9305,-225.2 211.9305,-225.2 205.9305,-219.2 205.9305,-213.2 205.9305,-213.2 205.9305,-201.2 205.9305,-201.2 205.9305,-195.2 211.9305,-189.2 217.9305,-189.2 217.9305,-189.2 325.1915,-189.2 325.1915,-189.2 331.1915,-189.2 337.1915,-195.2 337.1915,-201.2 337.1915,-201.2 337.1915,-213.2 337.1915,-213.2 337.1915,-219.2 331.1915,-225.2 325.1915,-225.2"/>
          <text text-anchor="middle" x="271.561" y="-203" font-family="Helvetica,sans-Serif" font-size="14.00" fill="#000000">DOP Subsampling</text>
        </a>
      </g>
    </g>
    <!-- 1&#45;&gt;2 -->
    <g id="edge1" class="edge">
      <title>1-&gt;2</title>
      <path fill="none" stroke="#000000" stroke-width="3" d="M170.0903,-182.1808C178.7244,-184.3097 187.4529,-186.4618 195.9766,-188.5635"/>
      <polygon fill="#000000" stroke="#000000" stroke-width="3" points="205.8709,-191.0031 195.0844,-192.9782 200.7769,-190.777 195.9223,-189.58 196.1617,-188.6091 196.4011,-187.6381 201.2557,-188.8352 197.239,-184.2399 205.8709,-191.0031 205.8709,-191.0031"/>
    </g>
    <!-- 26 -->
    <g id="node26" class="node">
      <title>26</title>
      <g id="a_node26">
        <a xlink:title="- name: Sherlock Swab">
          <path fill="#ffffff" stroke="#000000" d="M314.4122,-152.2C314.4122,-152.2 228.7098,-152.2 228.7098,-152.2 222.7098,-152.2 216.7098,-146.2 216.7098,-140.2 216.7098,-140.2 216.7098,-128.2 216.7098,-128.2 216.7098,-122.2 222.7098,-116.2 228.7098,-116.2 228.7098,-116.2 314.4122,-116.2 314.4122,-116.2 320.4122,-116.2 326.4122,-122.2 326.4122,-128.2 326.4122,-128.2 326.4122,-140.2 326.4122,-140.2 326.4122,-146.2 320.4122,-152.2 314.4122,-152.2"/>
          <text text-anchor="middle" x="271.561" y="-130" font-family="Helvetica,sans-Serif" font-size="14.00" fill="#000000">Sherlock Swab</text>
        </a>
      </g>
    </g>
    <!-- 1&#45;&gt;26 -->
    <g id="edge2" class="edge">
      <title>1-&gt;26</title>
      <path fill="none" stroke="#000000" stroke-width="3" d="M170.0903,-148.8852C182.3545,-147.1102 194.809,-145.3078 206.597,-143.6018"/>
      <polygon fill="#000000" stroke="#000000" stroke-width="3" points="216.763,-142.1305 207.5107,-148.0165 211.9578,-143.8364 207.0094,-144.5526 206.8661,-143.5629 206.7229,-142.5732 211.6713,-141.857 206.2215,-139.1093 216.763,-142.1305 216.763,-142.1305"/>
    </g>
    <!-- 3 -->
    <g id="node3" class="node">
      <title>3</title>
      <g id="a_node3">
        <a xlink:title="- name: Larvae">
          <path fill="#ffffff" stroke="#000000" d="M441.5985,-309.2C441.5985,-309.2 407.0157,-309.2 407.0157,-309.2 401.0157,-309.2 395.0157,-303.2 395.0157,-297.2 395.0157,-297.2 395.0157,-285.2 395.0157,-285.2 395.0157,-279.2 401.0157,-273.2 407.0157,-273.2 407.0157,-273.2 441.5985,-273.2 441.5985,-273.2 447.5985,-273.2 453.5985,-279.2 453.5985,-285.2 453.5985,-285.2 453.5985,-297.2 453.5985,-297.2 453.5985,-303.2 447.5985,-309.2 441.5985,-309.2"/>
          <text text-anchor="middle" x="424.3071" y="-287" font-family="Helvetica,sans-Serif" font-size="14.00" fill="#000000">Larvae</text>
        </a>
      </g>
    </g>
    <!-- 2&#45;&gt;3 -->
    <g id="edge3" class="edge">
      <title>2-&gt;3</title>
      <path fill="none" stroke="#000000" stroke-width="3" d="M304.3289,-225.2201C328.297,-238.4009 360.8818,-256.3204 386.0449,-270.1584"/>
      <polygon fill="#000000" stroke="#000000" stroke-width="3" points="394.9501,-275.0556 384.0192,-274.1799 390.087,-273.5225 385.7058,-271.1131 386.1876,-270.2368 386.6695,-269.3606 391.0507,-271.77 388.3561,-266.2937 394.9501,-275.0556 394.9501,-275.0556"/>
    </g>
    <!-- 19 -->
    <g id="node19" class="node">
      <title>19</title>
      <g id="a_node19">
        <a xlink:title="- name: Non-larvae">
          <path fill="#ffffff" stroke="#000000" d="M454.7557,-225.2C454.7557,-225.2 393.8585,-225.2 393.8585,-225.2 387.8585,-225.2 381.8585,-219.2 381.8585,-213.2 381.8585,-213.2 381.8585,-201.2 381.8585,-201.2 381.8585,-195.2 387.8585,-189.2 393.8585,-189.2 393.8585,-189.2 454.7557,-189.2 454.7557,-189.2 460.7557,-189.2 466.7557,-195.2 466.7557,-201.2 466.7557,-201.2 466.7557,-213.2 466.7557,-213.2 466.7557,-219.2 460.7557,-225.2 454.7557,-225.2"/>
          <text text-anchor="middle" x="424.3071" y="-203" font-family="Helvetica,sans-Serif" font-size="14.00" fill="#000000">Non-larvae</text>
        </a>
      </g>
    </g>
    <!-- 2&#45;&gt;19 -->
    <g id="edge4" class="edge">
      <title>2-&gt;19</title>
      <path fill="none" stroke="#000000" stroke-width="3" d="M337.2256,-207.2C348.6228,-207.2 360.3446,-207.2 371.3485,-207.2"/>
      <polygon fill="#000000" stroke="#000000" stroke-width="3" points="381.6446,-207.2 371.6446,-211.7001 376.6446,-208.2 371.6446,-208.2001 371.6446,-207.2001 371.6446,-206.2001 376.6446,-206.2 371.6445,-202.7001 381.6446,-207.2 381.6446,-207.2"/>
    </g>
    <!-- 4 -->
    <g id="node4" class="node">
      <title>4</title>
      <g id="a_node4">
        <a xlink:title="- name: ETOH">
          <path fill="#ffffff" stroke="#000000" d="M563.2672,-439.2C563.2672,-439.2 532.4942,-439.2 532.4942,-439.2 526.4942,-439.2 520.4942,-433.2 520.4942,-427.2 520.4942,-427.2 520.4942,-415.2 520.4942,-415.2 520.4942,-409.2 526.4942,-403.2 532.4942,-403.2 532.4942,-403.2 563.2672,-403.2 563.2672,-403.2 569.2672,-403.2 575.2672,-409.2 575.2672,-415.2 575.2672,-415.2 575.2672,-427.2 575.2672,-427.2 575.2672,-433.2 569.2672,-439.2 563.2672,-439.2"/>
          <text text-anchor="middle" x="547.8807" y="-417" font-family="Helvetica,sans-Serif" font-size="14.00" fill="#000000">ETOH</text>
        </a>
      </g>
    </g>
    <!-- 3&#45;&gt;4 -->
    <g id="edge6" class="edge">
      <title>3-&gt;4</title>
      <path fill="none" stroke="#000000" stroke-width="3" d="M441.4895,-309.2759C462.765,-331.6579 499.149,-369.934 523.3549,-395.3987"/>
      <polygon fill="#000000" stroke="#000000" stroke-width="3" points="530.4459,-402.8585 520.2946,-398.7109 526.2762,-399.9235 522.8314,-396.2995 523.5562,-395.6105 524.281,-394.9215 527.7258,-398.5455 526.8178,-392.5102 530.4459,-402.8585 530.4459,-402.8585"/>
    </g>
    <!-- 12 -->
    <g id="node12" class="node">
      <title>12</title>
      <g id="a_node12">
        <a xlink:title="- name: Formalin">
          <path fill="#ffffff" stroke="#000000" d="M571.3169,-309.2C571.3169,-309.2 524.4445,-309.2 524.4445,-309.2 518.4445,-309.2 512.4445,-303.2 512.4445,-297.2 512.4445,-297.2 512.4445,-285.2 512.4445,-285.2 512.4445,-279.2 518.4445,-273.2 524.4445,-273.2 524.4445,-273.2 571.3169,-273.2 571.3169,-273.2 577.3169,-273.2 583.3169,-279.2 583.3169,-285.2 583.3169,-285.2 583.3169,-297.2 583.3169,-297.2 583.3169,-303.2 577.3169,-309.2 571.3169,-309.2"/>
          <text text-anchor="middle" x="547.8807" y="-287" font-family="Helvetica,sans-Serif" font-size="14.00" fill="#000000">Formalin</text>
        </a>
      </g>
    </g>
    <!-- 3&#45;&gt;12 -->
    <g id="edge7" class="edge">
      <title>3-&gt;12</title>
      <path fill="none" stroke="#000000" stroke-width="3" d="M453.9061,-291.2C468.3149,-291.2 485.9639,-291.2 502.0606,-291.2"/>
      <polygon fill="#000000" stroke="#000000" stroke-width="3" points="512.3647,-291.2 502.3648,-295.7001 507.3647,-292.2 502.3647,-292.2001 502.3647,-291.2001 502.3647,-290.2001 507.3647,-290.2 502.3647,-286.7001 512.3647,-291.2 512.3647,-291.2"/>
    </g>
    <!-- 5 -->
    <g id="node5" class="node">
      <title>5</title>
      <g id="a_node5">
        <a xlink:title="- name: GVL &#10; DNA &#10; Extraction">
          <path fill="#ffffff" stroke="#000000" d="M710.2917,-565.6014C710.2917,-565.6014 652.0447,-565.6014 652.0447,-565.6014 646.0447,-565.6014 640.0447,-559.6014 640.0447,-553.6014 640.0447,-553.6014 640.0447,-518.7986 640.0447,-518.7986 640.0447,-512.7986 646.0447,-506.7986 652.0447,-506.7986 652.0447,-506.7986 710.2917,-506.7986 710.2917,-506.7986 716.2917,-506.7986 722.2917,-512.7986 722.2917,-518.7986 722.2917,-518.7986 722.2917,-553.6014 722.2917,-553.6014 722.2917,-559.6014 716.2917,-565.6014 710.2917,-565.6014"/>
          <text text-anchor="middle" x="681.1682" y="-548.8" font-family="Helvetica,sans-Serif" font-size="14.00" fill="#000000">GVL </text>
          <text text-anchor="middle" x="681.1682" y="-532" font-family="Helvetica,sans-Serif" font-size="14.00" fill="#000000"> DNA </text>
          <text text-anchor="middle" x="681.1682" y="-515.2" font-family="Helvetica,sans-Serif" font-size="14.00" fill="#000000"> Extraction</text>
        </a>
      </g>
    </g>
    <!-- 4&#45;&gt;5 -->
    <g id="edge11" class="edge">
      <title>4-&gt;5</title>
      <path fill="none" stroke="#000000" stroke-width="3" d="M569.0005,-439.4221C587.8622,-455.6959 616.0431,-480.0103 639.4387,-500.1959"/>
      <polygon fill="#000000" stroke="#000000" stroke-width="3" points="647.169,-506.8656 636.658,-503.7402 642.7301,-504.3565 638.9444,-501.0902 639.5976,-500.333 640.2509,-499.5759 644.0366,-502.8422 642.5373,-496.9259 647.169,-506.8656 647.169,-506.8656"/>
    </g>
    <!-- 6 -->
    <g id="node6" class="node">
      <title>6</title>
      <g id="a_node6">
        <a xlink:title="- name: Extraction Stored (-80C)">
          <path fill="#ffffff" stroke="#000000" d="M932.9178,-662.2C932.9178,-662.2 790.1114,-662.2 790.1114,-662.2 784.1114,-662.2 778.1114,-656.2 778.1114,-650.2 778.1114,-650.2 778.1114,-638.2 778.1114,-638.2 778.1114,-632.2 784.1114,-626.2 790.1114,-626.2 790.1114,-626.2 932.9178,-626.2 932.9178,-626.2 938.9178,-626.2 944.9178,-632.2 944.9178,-638.2 944.9178,-638.2 944.9178,-650.2 944.9178,-650.2 944.9178,-656.2 938.9178,-662.2 932.9178,-662.2"/>
          <text text-anchor="middle" x="861.5146" y="-640" font-family="Helvetica,sans-Serif" font-size="14.00" fill="#000000">Extraction Stored (-80C)</text>
        </a>
      </g>
    </g>
    <!-- 5&#45;&gt;6 -->
    <g id="edge16" class="edge">
      <title>5-&gt;6</title>
      <path fill="none" stroke="#000000" stroke-width="3" d="M721.8845,-565.6887C738.9154,-577.558 759.1203,-591.0472 778.063,-602.2 789.3123,-608.8232 801.7367,-615.4332 813.4855,-621.3837"/>
      <polygon fill="#000000" stroke="#000000" stroke-width="3" points="822.7276,-626.0021 811.7708,-625.5573 817.808,-624.6615 813.3353,-622.4265 813.7823,-621.5319 814.2293,-620.6374 818.702,-622.8725 815.7939,-617.5065 822.7276,-626.0021 822.7276,-626.0021"/>
    </g>
    <!-- 8 -->
    <g id="node8" class="node">
      <title>8</title>
      <g id="a_node8">
        <a xlink:title="- name: Gtseq &#10;Abernathy">
          <path fill="#ffffff" stroke="#000000" d="M889.3156,-592.8019C889.3156,-592.8019 833.7136,-592.8019 833.7136,-592.8019 827.7136,-592.8019 821.7136,-586.8019 821.7136,-580.8019 821.7136,-580.8019 821.7136,-563.5981 821.7136,-563.5981 821.7136,-557.5981 827.7136,-551.5981 833.7136,-551.5981 833.7136,-551.5981 889.3156,-551.5981 889.3156,-551.5981 895.3156,-551.5981 901.3156,-557.5981 901.3156,-563.5981 901.3156,-563.5981 901.3156,-580.8019 901.3156,-580.8019 901.3156,-586.8019 895.3156,-592.8019 889.3156,-592.8019"/>
          <text text-anchor="middle" x="861.5146" y="-576.4" font-family="Helvetica,sans-Serif" font-size="14.00" fill="#000000">Gtseq </text>
          <text text-anchor="middle" x="861.5146" y="-559.6" font-family="Helvetica,sans-Serif" font-size="14.00" fill="#000000">Abernathy</text>
        </a>
      </g>
    </g>
    <!-- 5&#45;&gt;8 -->
    <g id="edge17" class="edge">
      <title>5-&gt;8</title>
      <path fill="none" stroke="#000000" stroke-width="3" d="M722.5433,-544.4591C749.0323,-549.7467 783.5608,-556.6392 811.5734,-562.2309"/>
      <polygon fill="#000000" stroke="#000000" stroke-width="3" points="821.5721,-564.2268 810.8846,-566.6822 816.473,-564.2287 811.5698,-563.2499 811.7655,-562.2692 811.9613,-561.2886 816.8646,-562.2674 812.6465,-557.8563 821.5721,-564.2268 821.5721,-564.2268"/>
    </g>
    <!-- 10 -->
    <g id="node10" class="node">
      <title>10</title>
      <g id="a_node10">
        <a xlink:title="- name: SNPs GVL">
          <path fill="#ffffff" stroke="#000000" d="M891.1954,-519.2C891.1954,-519.2 831.8338,-519.2 831.8338,-519.2 825.8338,-519.2 819.8338,-513.2 819.8338,-507.2 819.8338,-507.2 819.8338,-495.2 819.8338,-495.2 819.8338,-489.2 825.8338,-483.2 831.8338,-483.2 831.8338,-483.2 891.1954,-483.2 891.1954,-483.2 897.1954,-483.2 903.1954,-489.2 903.1954,-495.2 903.1954,-495.2 903.1954,-507.2 903.1954,-507.2 903.1954,-513.2 897.1954,-519.2 891.1954,-519.2"/>
          <text text-anchor="middle" x="861.5146" y="-497" font-family="Helvetica,sans-Serif" font-size="14.00" fill="#000000">SNPs GVL</text>
        </a>
      </g>
    </g>
    <!-- 5&#45;&gt;10 -->
    <g id="edge18" class="edge">
      <title>5-&gt;10</title>
      <path fill="none" stroke="#000000" stroke-width="3" d="M722.5433,-528.1703C748.4766,-523.1374 782.1156,-516.609 809.8019,-511.2359"/>
      <polygon fill="#000000" stroke="#000000" stroke-width="3" points="819.7075,-509.3135 810.748,-515.6364 814.9896,-511.2479 810.0812,-512.2005 809.8907,-511.2188 809.7001,-510.2371 814.6085,-509.2845 809.0333,-506.8012 819.7075,-509.3135 819.7075,-509.3135"/>
    </g>
    <!-- 7 -->
    <g id="node7" class="node">
      <title>7</title>
      <g id="a_node7">
        <a xlink:title="- Action: Extraction Stored (-80C)&#10;- Delivery: Delta Smelt &#10;USFWS &#10; CDFW &#10; Fish Collection Facilities&#10;- Dissection: Archive GVL&#10;- Laboratory: GVL &#10; DNA &#10; Extraction&#10;- Preservation: ETOH&#10;- Processing: DOP Subsampling&#10;- Stage: Larvae">
          <path fill="#ffffff" stroke="#000000" d="M1113.8823,-671.2C1113.8823,-671.2 1043.7415,-671.2 1043.7415,-671.2 1037.7415,-671.2 1031.7415,-665.2 1031.7415,-659.2 1031.7415,-659.2 1031.7415,-647.2 1031.7415,-647.2 1031.7415,-641.2 1037.7415,-635.2 1043.7415,-635.2 1043.7415,-635.2 1113.8823,-635.2 1113.8823,-635.2 1119.8823,-635.2 1125.8823,-641.2 1125.8823,-647.2 1125.8823,-647.2 1125.8823,-659.2 1125.8823,-659.2 1125.8823,-665.2 1119.8823,-671.2 1113.8823,-671.2"/>
          <text text-anchor="middle" x="1078.8119" y="-649" font-family="Helvetica,sans-Serif" font-size="14.00" fill="#000000">Archive GVL</text>
        </a>
      </g>
    </g>
    <!-- 6&#45;&gt;7 -->
    <g id="edge25" class="edge">
      <title>6-&gt;7</title>
      <path fill="none" stroke="#000000" stroke-width="3" d="M945.2166,-647.6668C970.7323,-648.7236 998.1886,-649.8607 1021.5342,-650.8277"/>
      <polygon fill="#000000" stroke="#000000" stroke-width="3" points="1031.6088,-651.2449 1021.4311,-655.3272 1026.5717,-652.0371 1021.576,-651.8302 1021.6174,-650.831 1021.6587,-649.8319 1026.6545,-650.0388 1021.8036,-646.3349 1031.6088,-651.2449 1031.6088,-651.2449"/>
    </g>
    <!-- 9 -->
    <g id="node9" class="node">
      <title>9</title>
      <g id="a_node9">
        <a xlink:title="- Action: Gtseq &#10;Abernathy&#10;- Delivery: Delta Smelt &#10;USFWS &#10; CDFW &#10; Fish Collection Facilities&#10;- Dissection: heterozygosity, &#10;  inbreeding coefficient (Fis), &#10; differentiation (Fst),&#10; effective size&#10;- Laboratory: GVL &#10; DNA &#10; Extraction&#10;- Preservation: ETOH&#10;- Processing: DOP Subsampling&#10;- Stage: Larvae">
          <path fill="#ffffff" stroke="#000000" d="M1164.5035,-616.9003C1164.5035,-616.9003 993.1203,-616.9003 993.1203,-616.9003 987.1203,-616.9003 981.1203,-610.9003 981.1203,-604.9003 981.1203,-604.9003 981.1203,-553.4997 981.1203,-553.4997 981.1203,-547.4997 987.1203,-541.4997 993.1203,-541.4997 993.1203,-541.4997 1164.5035,-541.4997 1164.5035,-541.4997 1170.5035,-541.4997 1176.5035,-547.4997 1176.5035,-553.4997 1176.5035,-553.4997 1176.5035,-604.9003 1176.5035,-604.9003 1176.5035,-610.9003 1170.5035,-616.9003 1164.5035,-616.9003"/>
          <text text-anchor="middle" x="1078.8119" y="-600.2" font-family="Helvetica,sans-Serif" font-size="14.00" fill="#000000">heterozygosity, </text>
          <text text-anchor="middle" x="1078.8119" y="-583.4" font-family="Helvetica,sans-Serif" font-size="14.00" fill="#000000">  inbreeding coefficient (Fis), </text>
          <text text-anchor="middle" x="1078.8119" y="-566.6" font-family="Helvetica,sans-Serif" font-size="14.00" fill="#000000"> differentiation (Fst),</text>
          <text text-anchor="middle" x="1078.8119" y="-549.8" font-family="Helvetica,sans-Serif" font-size="14.00" fill="#000000"> effective size</text>
        </a>
      </g>
    </g>
    <!-- 8&#45;&gt;9 -->
    <g id="edge26" class="edge">
      <title>8-&gt;9</title>
      <path fill="none" stroke="#000000" stroke-width="3" d="M901.3703,-573.4839C921.0769,-574.1187 945.9129,-574.9188 970.7109,-575.7176"/>
      <polygon fill="#000000" stroke="#000000" stroke-width="3" points="980.945,-576.0473 970.8053,-580.2229 975.9154,-576.8858 970.918,-576.7247 970.9502,-575.7253 970.9824,-574.7258 975.9798,-574.8868 971.0951,-571.2276 980.945,-576.0473 980.945,-576.0473"/>
    </g>
    <!-- 11 -->
    <g id="node11" class="node">
      <title>11</title>
      <g id="a_node11">
        <a xlink:title="- Action: SNPs GVL&#10;- Delivery: Delta Smelt &#10;USFWS &#10; CDFW &#10; Fish Collection Facilities&#10;- Dissection: Parentage &#10; Hybridization &#10; Family ID &#10;&#10;- Laboratory: GVL &#10; DNA &#10; Extraction&#10;- Preservation: ETOH&#10;- Processing: DOP Subsampling&#10;- Stage: Larvae">
          <path fill="#ffffff" stroke="#000000" d="M1118.9842,-523.6014C1118.9842,-523.6014 1038.6396,-523.6014 1038.6396,-523.6014 1032.6396,-523.6014 1026.6396,-517.6014 1026.6396,-511.6014 1026.6396,-511.6014 1026.6396,-476.7986 1026.6396,-476.7986 1026.6396,-470.7986 1032.6396,-464.7986 1038.6396,-464.7986 1038.6396,-464.7986 1118.9842,-464.7986 1118.9842,-464.7986 1124.9842,-464.7986 1130.9842,-470.7986 1130.9842,-476.7986 1130.9842,-476.7986 1130.9842,-511.6014 1130.9842,-511.6014 1130.9842,-517.6014 1124.9842,-523.6014 1118.9842,-523.6014"/>
          <text text-anchor="middle" x="1078.8119" y="-506.8" font-family="Helvetica,sans-Serif" font-size="14.00" fill="#000000">Parentage </text>
          <text text-anchor="middle" x="1078.8119" y="-490" font-family="Helvetica,sans-Serif" font-size="14.00" fill="#000000"> Hybridization </text>
          <text text-anchor="middle" x="1078.8119" y="-473.2" font-family="Helvetica,sans-Serif" font-size="14.00" fill="#000000"> Family ID </text>
        </a>
      </g>
    </g>
    <!-- 10&#45;&gt;11 -->
    <g id="edge27" class="edge">
      <title>10-&gt;11</title>
      <path fill="none" stroke="#000000" stroke-width="3" d="M903.4117,-499.8503C935.2901,-498.8234 979.686,-497.3932 1015.8354,-496.2287"/>
      <polygon fill="#000000" stroke="#000000" stroke-width="3" points="1026.2796,-495.8923 1016.4297,-500.712 1021.3144,-497.0528 1016.317,-497.2138 1016.2848,-496.2143 1016.2525,-495.2149 1021.25,-495.0538 1016.1398,-491.7167 1026.2796,-495.8923 1026.2796,-495.8923"/>
    </g>
    <!-- 13 -->
    <g id="node13" class="node">
      <title>13</title>
      <g id="a_node13">
        <a xlink:title="- name: UCD Aquatic  &#10; Health Program &#10; Dissection">
          <path fill="#ffffff" stroke="#000000" d="M729.958,-320.6014C729.958,-320.6014 632.3784,-320.6014 632.3784,-320.6014 626.3784,-320.6014 620.3784,-314.6014 620.3784,-308.6014 620.3784,-308.6014 620.3784,-273.7986 620.3784,-273.7986 620.3784,-267.7986 626.3784,-261.7986 632.3784,-261.7986 632.3784,-261.7986 729.958,-261.7986 729.958,-261.7986 735.958,-261.7986 741.958,-267.7986 741.958,-273.7986 741.958,-273.7986 741.958,-308.6014 741.958,-308.6014 741.958,-314.6014 735.958,-320.6014 729.958,-320.6014"/>
          <text text-anchor="middle" x="681.1682" y="-303.8" font-family="Helvetica,sans-Serif" font-size="14.00" fill="#000000">UCD Aquatic  </text>
          <text text-anchor="middle" x="681.1682" y="-287" font-family="Helvetica,sans-Serif" font-size="14.00" fill="#000000"> Health Program </text>
          <text text-anchor="middle" x="681.1682" y="-270.2" font-family="Helvetica,sans-Serif" font-size="14.00" fill="#000000"> Dissection</text>
        </a>
      </g>
    </g>
    <!-- 12&#45;&gt;13 -->
    <g id="edge12" class="edge">
      <title>12-&gt;13</title>
      <path fill="none" stroke="#000000" stroke-width="3" d="M583.2494,-291.2C591.6317,-291.2 600.8677,-291.2 610.2173,-291.2"/>
      <polygon fill="#000000" stroke="#000000" stroke-width="3" points="620.3721,-291.2 610.3721,-295.7001 615.3721,-292.2 610.3721,-292.2001 610.3721,-291.2001 610.3721,-290.2001 615.3721,-290.2 610.372,-286.7001 620.3721,-291.2 620.3721,-291.2"/>
    </g>
    <!-- 14 -->
    <g id="node14" class="node">
      <title>14</title>
      <g id="a_node14">
        <a xlink:title="- name: Abernathy &#10; Extraction&#10; formalin method &#10; Gtseq">
          <path fill="#ffffff" stroke="#000000" d="M911.6409,-396.9003C911.6409,-396.9003 811.3883,-396.9003 811.3883,-396.9003 805.3883,-396.9003 799.3883,-390.9003 799.3883,-384.9003 799.3883,-384.9003 799.3883,-333.4997 799.3883,-333.4997 799.3883,-327.4997 805.3883,-321.4997 811.3883,-321.4997 811.3883,-321.4997 911.6409,-321.4997 911.6409,-321.4997 917.6409,-321.4997 923.6409,-327.4997 923.6409,-333.4997 923.6409,-333.4997 923.6409,-384.9003 923.6409,-384.9003 923.6409,-390.9003 917.6409,-396.9003 911.6409,-396.9003"/>
          <text text-anchor="middle" x="861.5146" y="-380.2" font-family="Helvetica,sans-Serif" font-size="14.00" fill="#000000">Abernathy </text>
          <text text-anchor="middle" x="861.5146" y="-363.4" font-family="Helvetica,sans-Serif" font-size="14.00" fill="#000000"> Extraction</text>
          <text text-anchor="middle" x="861.5146" y="-346.6" font-family="Helvetica,sans-Serif" font-size="14.00" fill="#000000"> formalin method </text>
          <text text-anchor="middle" x="861.5146" y="-329.8" font-family="Helvetica,sans-Serif" font-size="14.00" fill="#000000"> Gtseq</text>
        </a>
      </g>
    </g>
    <!-- 13&#45;&gt;14 -->
    <g id="edge19" class="edge">
      <title>13-&gt;14</title>
      <path fill="none" stroke="#000000" stroke-width="3" d="M741.9738,-314.1269C757.3015,-319.9062 773.8999,-326.1647 789.7115,-332.1265"/>
      <polygon fill="#000000" stroke="#000000" stroke-width="3" points="799.4363,-335.7932 788.4917,-336.4757 794.405,-334.9649 789.7265,-333.2008 790.0793,-332.2651 790.4321,-331.3294 795.1106,-333.0935 791.667,-328.0545 799.4363,-335.7932 799.4363,-335.7932"/>
    </g>
    <!-- 17 -->
    <g id="node17" class="node">
      <title>17</title>
      <g id="a_node17">
        <a xlink:title="- name: Carcass &#10;Stored (-80C)">
          <path fill="#ffffff" stroke="#000000" d="M899.7946,-303.8019C899.7946,-303.8019 823.2346,-303.8019 823.2346,-303.8019 817.2346,-303.8019 811.2346,-297.8019 811.2346,-291.8019 811.2346,-291.8019 811.2346,-274.5981 811.2346,-274.5981 811.2346,-268.5981 817.2346,-262.5981 823.2346,-262.5981 823.2346,-262.5981 899.7946,-262.5981 899.7946,-262.5981 905.7946,-262.5981 911.7946,-268.5981 911.7946,-274.5981 911.7946,-274.5981 911.7946,-291.8019 911.7946,-291.8019 911.7946,-297.8019 905.7946,-303.8019 899.7946,-303.8019"/>
          <text text-anchor="middle" x="861.5146" y="-287.4" font-family="Helvetica,sans-Serif" font-size="14.00" fill="#000000">Carcass </text>
          <text text-anchor="middle" x="861.5146" y="-270.6" font-family="Helvetica,sans-Serif" font-size="14.00" fill="#000000">Stored (-80C)</text>
        </a>
      </g>
    </g>
    <!-- 13&#45;&gt;17 -->
    <g id="edge20" class="edge">
      <title>13-&gt;17</title>
      <path fill="none" stroke="#000000" stroke-width="3" d="M741.9738,-288.5027C761.0435,-287.6568 782.0802,-286.7236 801.1213,-285.879"/>
      <polygon fill="#000000" stroke="#000000" stroke-width="3" points="811.1713,-285.4332 801.3806,-290.372 806.2206,-286.6538 801.2255,-286.8754 801.1811,-285.8764 801.1368,-284.8774 806.1319,-284.6558 800.9817,-281.3809 811.1713,-285.4332 811.1713,-285.4332"/>
    </g>
    <!-- 15 -->
    <g id="node15" class="node">
      <title>15</title>
      <g id="a_node15">
        <a xlink:title="- Action: Abernathy &#10; Extraction&#10; formalin method &#10; Gtseq&#10;- Delivery: Delta Smelt &#10;USFWS &#10; CDFW &#10; Fish Collection Facilities&#10;- Dissection: Extraction Stored (-80C)&#10;- Laboratory: UCD Aquatic  &#10; Health Program &#10; Dissection&#10;- Preservation: Formalin&#10;- Processing: DOP Subsampling&#10;- Stage: Larvae">
          <path fill="#ffffff" stroke="#000000" d="M1150.2151,-447.2C1150.2151,-447.2 1007.4087,-447.2 1007.4087,-447.2 1001.4087,-447.2 995.4087,-441.2 995.4087,-435.2 995.4087,-435.2 995.4087,-423.2 995.4087,-423.2 995.4087,-417.2 1001.4087,-411.2 1007.4087,-411.2 1007.4087,-411.2 1150.2151,-411.2 1150.2151,-411.2 1156.2151,-411.2 1162.2151,-417.2 1162.2151,-423.2 1162.2151,-423.2 1162.2151,-435.2 1162.2151,-435.2 1162.2151,-441.2 1156.2151,-447.2 1150.2151,-447.2"/>
          <text text-anchor="middle" x="1078.8119" y="-425" font-family="Helvetica,sans-Serif" font-size="14.00" fill="#000000">Extraction Stored (-80C)</text>
        </a>
      </g>
    </g>
    <!-- 14&#45;&gt;15 -->
    <g id="edge28" class="edge">
      <title>14-&gt;15</title>
      <path fill="none" stroke="#000000" stroke-width="3" d="M923.8228,-382.6447C942.1351,-389.259 962.2693,-396.2646 980.9662,-402.2 987.3985,-404.242 994.0961,-406.2772 1000.8355,-408.2621"/>
      <polygon fill="#000000" stroke="#000000" stroke-width="3" points="1010.7135,-411.129 999.8555,-412.6633 1005.633,-410.6957 1000.8311,-409.302 1001.1098,-408.3416 1001.3886,-407.3813 1006.1904,-408.7749 1002.3642,-404.02 1010.7135,-411.129 1010.7135,-411.129"/>
    </g>
    <!-- 16 -->
    <g id="node16" class="node">
      <title>16</title>
      <g id="a_node16">
        <a xlink:title="- Action: Abernathy &#10; Extraction&#10; formalin method &#10; Gtseq&#10;- Delivery: Delta Smelt &#10;USFWS &#10; CDFW &#10; Fish Collection Facilities&#10;- Dissection: heterozygosity, &#10;  inbreeding coefficient (Fis), &#10; differentiation (Fst),&#10; effective size&#10;- Laboratory: UCD Aquatic  &#10; Health Program &#10; Dissection&#10;- Preservation: Formalin&#10;- Processing: DOP Subsampling&#10;- Stage: Larvae">
          <path fill="#ffffff" stroke="#000000" d="M1164.5035,-392.9003C1164.5035,-392.9003 993.1203,-392.9003 993.1203,-392.9003 987.1203,-392.9003 981.1203,-386.9003 981.1203,-380.9003 981.1203,-380.9003 981.1203,-329.4997 981.1203,-329.4997 981.1203,-323.4997 987.1203,-317.4997 993.1203,-317.4997 993.1203,-317.4997 1164.5035,-317.4997 1164.5035,-317.4997 1170.5035,-317.4997 1176.5035,-323.4997 1176.5035,-329.4997 1176.5035,-329.4997 1176.5035,-380.9003 1176.5035,-380.9003 1176.5035,-386.9003 1170.5035,-392.9003 1164.5035,-392.9003"/>
          <text text-anchor="middle" x="1078.8119" y="-376.2" font-family="Helvetica,sans-Serif" font-size="14.00" fill="#000000">heterozygosity, </text>
          <text text-anchor="middle" x="1078.8119" y="-359.4" font-family="Helvetica,sans-Serif" font-size="14.00" fill="#000000">  inbreeding coefficient (Fis), </text>
          <text text-anchor="middle" x="1078.8119" y="-342.6" font-family="Helvetica,sans-Serif" font-size="14.00" fill="#000000"> differentiation (Fst),</text>
          <text text-anchor="middle" x="1078.8119" y="-325.8" font-family="Helvetica,sans-Serif" font-size="14.00" fill="#000000"> effective size</text>
        </a>
      </g>
    </g>
    <!-- 14&#45;&gt;16 -->
    <g id="edge29" class="edge">
      <title>14-&gt;16</title>
      <path fill="none" stroke="#000000" stroke-width="3" d="M923.7833,-358.0538C938.531,-357.7823 954.6821,-357.485 970.8142,-357.188"/>
      <polygon fill="#000000" stroke="#000000" stroke-width="3" points="980.8435,-357.0034 970.9281,-361.6868 975.8628,-358.0953 970.8636,-358.1874 970.8452,-357.1875 970.8268,-356.1877 975.8259,-356.0956 970.7623,-352.6883 980.8435,-357.0034 980.8435,-357.0034"/>
    </g>
    <!-- 18 -->
    <g id="node18" class="node">
      <title>18</title>
      <g id="a_node18">
        <a xlink:title="- Action: Carcass &#10;Stored (-80C)&#10;- Delivery: Delta Smelt &#10;USFWS &#10; CDFW &#10; Fish Collection Facilities&#10;- Dissection: UCD Aquatic  &#10; Health Program&#10;- Laboratory: UCD Aquatic  &#10; Health Program &#10; Dissection&#10;- Preservation: Formalin&#10;- Processing: DOP Subsampling&#10;- Stage: Larvae">
          <path fill="#ffffff" stroke="#000000" d="M1125.7109,-299.8019C1125.7109,-299.8019 1031.9129,-299.8019 1031.9129,-299.8019 1025.9129,-299.8019 1019.9129,-293.8019 1019.9129,-287.8019 1019.9129,-287.8019 1019.9129,-270.5981 1019.9129,-270.5981 1019.9129,-264.5981 1025.9129,-258.5981 1031.9129,-258.5981 1031.9129,-258.5981 1125.7109,-258.5981 1125.7109,-258.5981 1131.7109,-258.5981 1137.7109,-264.5981 1137.7109,-270.5981 1137.7109,-270.5981 1137.7109,-287.8019 1137.7109,-287.8019 1137.7109,-293.8019 1131.7109,-299.8019 1125.7109,-299.8019"/>
          <text text-anchor="middle" x="1078.8119" y="-283.4" font-family="Helvetica,sans-Serif" font-size="14.00" fill="#000000">UCD Aquatic  </text>
          <text text-anchor="middle" x="1078.8119" y="-266.6" font-family="Helvetica,sans-Serif" font-size="14.00" fill="#000000"> Health Program</text>
        </a>
      </g>
    </g>
    <!-- 17&#45;&gt;18 -->
    <g id="edge30" class="edge">
      <title>17-&gt;18</title>
      <path fill="none" stroke="#000000" stroke-width="3" d="M911.9131,-282.2723C940.9878,-281.7371 977.9639,-281.0564 1009.719,-280.4719"/>
      <polygon fill="#000000" stroke="#000000" stroke-width="3" points="1019.829,-280.2858 1009.9136,-284.9691 1014.8483,-281.3777 1009.8491,-281.4697 1009.8307,-280.4699 1009.8123,-279.4701 1014.8115,-279.378 1009.7478,-275.9707 1019.829,-280.2858 1019.829,-280.2858"/>
    </g>
    <!-- 20 -->
    <g id="node20" class="node">
      <title>20</title>
      <g id="a_node20">
        <a xlink:title="- name: Liquid &#10; Nitrogen">
          <path fill="#ffffff" stroke="#000000" d="M572.1664,-227.8019C572.1664,-227.8019 523.595,-227.8019 523.595,-227.8019 517.595,-227.8019 511.595,-221.8019 511.595,-215.8019 511.595,-215.8019 511.595,-198.5981 511.595,-198.5981 511.595,-192.5981 517.595,-186.5981 523.595,-186.5981 523.595,-186.5981 572.1664,-186.5981 572.1664,-186.5981 578.1664,-186.5981 584.1664,-192.5981 584.1664,-198.5981 584.1664,-198.5981 584.1664,-215.8019 584.1664,-215.8019 584.1664,-221.8019 578.1664,-227.8019 572.1664,-227.8019"/>
          <text text-anchor="middle" x="547.8807" y="-211.4" font-family="Helvetica,sans-Serif" font-size="14.00" fill="#000000">Liquid </text>
          <text text-anchor="middle" x="547.8807" y="-194.6" font-family="Helvetica,sans-Serif" font-size="14.00" fill="#000000"> Nitrogen</text>
        </a>
      </g>
    </g>
    <!-- 19&#45;&gt;20 -->
    <g id="edge8" class="edge">
      <title>19-&gt;20</title>
      <path fill="none" stroke="#000000" stroke-width="3" d="M466.8341,-207.2C477.9522,-207.2 489.9947,-207.2 501.3111,-207.2"/>
      <polygon fill="#000000" stroke="#000000" stroke-width="3" points="511.4521,-207.2 501.4521,-211.7001 506.4521,-208.2 501.4521,-208.2001 501.4521,-207.2001 501.4521,-206.2001 506.4521,-206.2 501.452,-202.7001 511.4521,-207.2 511.4521,-207.2"/>
    </g>
    <!-- 21 -->
    <g id="node21" class="node">
      <title>21</title>
      <g id="a_node21">
        <a xlink:title="- name: UCD Aquatic  &#10; Health Program &#10; Dissection">
          <path fill="#ffffff" stroke="#000000" d="M729.958,-236.6014C729.958,-236.6014 632.3784,-236.6014 632.3784,-236.6014 626.3784,-236.6014 620.3784,-230.6014 620.3784,-224.6014 620.3784,-224.6014 620.3784,-189.7986 620.3784,-189.7986 620.3784,-183.7986 626.3784,-177.7986 632.3784,-177.7986 632.3784,-177.7986 729.958,-177.7986 729.958,-177.7986 735.958,-177.7986 741.958,-183.7986 741.958,-189.7986 741.958,-189.7986 741.958,-224.6014 741.958,-224.6014 741.958,-230.6014 735.958,-236.6014 729.958,-236.6014"/>
          <text text-anchor="middle" x="681.1682" y="-219.8" font-family="Helvetica,sans-Serif" font-size="14.00" fill="#000000">UCD Aquatic  </text>
          <text text-anchor="middle" x="681.1682" y="-203" font-family="Helvetica,sans-Serif" font-size="14.00" fill="#000000"> Health Program </text>
          <text text-anchor="middle" x="681.1682" y="-186.2" font-family="Helvetica,sans-Serif" font-size="14.00" fill="#000000"> Dissection</text>
        </a>
      </g>
    </g>
    <!-- 20&#45;&gt;21 -->
    <g id="edge13" class="edge">
      <title>20-&gt;21</title>
      <path fill="none" stroke="#000000" stroke-width="3" d="M584.3021,-207.2C592.3664,-207.2 601.1797,-207.2 610.0992,-207.2"/>
      <polygon fill="#000000" stroke="#000000" stroke-width="3" points="620.1805,-207.2 610.1806,-211.7001 615.1805,-208.2 610.1805,-208.2001 610.1805,-207.2001 610.1805,-206.2001 615.1805,-206.2 610.1805,-202.7001 620.1805,-207.2 620.1805,-207.2"/>
    </g>
    <!-- 22 -->
    <g id="node22" class="node">
      <title>22</title>
      <g id="a_node22">
        <a xlink:title="- name: GVL &#10; Finclip (ETOH) &#10; Extraction">
          <path fill="#ffffff" stroke="#000000" d="M907.832,-244.6014C907.832,-244.6014 815.1972,-244.6014 815.1972,-244.6014 809.1972,-244.6014 803.1972,-238.6014 803.1972,-232.6014 803.1972,-232.6014 803.1972,-197.7986 803.1972,-197.7986 803.1972,-191.7986 809.1972,-185.7986 815.1972,-185.7986 815.1972,-185.7986 907.832,-185.7986 907.832,-185.7986 913.832,-185.7986 919.832,-191.7986 919.832,-197.7986 919.832,-197.7986 919.832,-232.6014 919.832,-232.6014 919.832,-238.6014 913.832,-244.6014 907.832,-244.6014"/>
          <text text-anchor="middle" x="861.5146" y="-227.8" font-family="Helvetica,sans-Serif" font-size="14.00" fill="#000000">GVL </text>
          <text text-anchor="middle" x="861.5146" y="-211" font-family="Helvetica,sans-Serif" font-size="14.00" fill="#000000"> Finclip (ETOH) </text>
          <text text-anchor="middle" x="861.5146" y="-194.2" font-family="Helvetica,sans-Serif" font-size="14.00" fill="#000000"> Extraction</text>
        </a>
      </g>
    </g>
    <!-- 21&#45;&gt;22 -->
    <g id="edge21" class="edge">
      <title>21-&gt;22</title>
      <path fill="none" stroke="#000000" stroke-width="3" d="M741.9738,-209.8973C758.3177,-210.6223 776.1064,-211.4114 792.8453,-212.1539"/>
      <polygon fill="#000000" stroke="#000000" stroke-width="3" points="803.1097,-212.6092 792.92,-216.6615 798.0703,-213.3866 793.0752,-213.165 793.1195,-212.166 793.1638,-211.1669 798.1589,-211.3886 793.319,-207.6704 803.1097,-212.6092 803.1097,-212.6092"/>
    </g>
    <!-- 24 -->
    <g id="node24" class="node">
      <title>24</title>
      <g id="a_node24">
        <a xlink:title="- name: Carcass Stored (-80C)">
          <path fill="#ffffff" stroke="#000000" d="M927.5174,-168.2C927.5174,-168.2 795.5118,-168.2 795.5118,-168.2 789.5118,-168.2 783.5118,-162.2 783.5118,-156.2 783.5118,-156.2 783.5118,-144.2 783.5118,-144.2 783.5118,-138.2 789.5118,-132.2 795.5118,-132.2 795.5118,-132.2 927.5174,-132.2 927.5174,-132.2 933.5174,-132.2 939.5174,-138.2 939.5174,-144.2 939.5174,-144.2 939.5174,-156.2 939.5174,-156.2 939.5174,-162.2 933.5174,-168.2 927.5174,-168.2"/>
          <text text-anchor="middle" x="861.5146" y="-146" font-family="Helvetica,sans-Serif" font-size="14.00" fill="#000000">Carcass Stored (-80C)</text>
        </a>
      </g>
    </g>
    <!-- 21&#45;&gt;24 -->
    <g id="edge22" class="edge">
      <title>21-&gt;24</title>
      <path fill="none" stroke="#000000" stroke-width="3" d="M741.9738,-187.9819C758.8138,-182.6595 777.1877,-176.8522 794.3667,-171.4227"/>
      <polygon fill="#000000" stroke="#000000" stroke-width="3" points="804.3227,-168.276 796.1438,-175.5805 799.8565,-170.7364 795.089,-172.2432 794.7876,-171.2897 794.4862,-170.3362 799.2538,-168.8293 793.4314,-166.9989 804.3227,-168.276 804.3227,-168.276"/>
    </g>
    <!-- 23 -->
    <g id="node23" class="node">
      <title>23</title>
      <g id="a_node23">
        <a xlink:title="- Action: GVL &#10; Finclip (ETOH) &#10; Extraction&#10;- Delivery: Delta Smelt &#10;USFWS &#10; CDFW &#10; Fish Collection Facilities&#10;- Dissection: CytoB &#10; Identification&#10;- Laboratory: UCD Aquatic  &#10; Health Program &#10; Dissection&#10;- Preservation: Liquid &#10; Nitrogen&#10;- Processing: DOP Subsampling&#10;- Stage: Non-larvae">
          <path fill="#ffffff" stroke="#000000" d="M1116.2814,-235.8019C1116.2814,-235.8019 1041.3424,-235.8019 1041.3424,-235.8019 1035.3424,-235.8019 1029.3424,-229.8019 1029.3424,-223.8019 1029.3424,-223.8019 1029.3424,-206.5981 1029.3424,-206.5981 1029.3424,-200.5981 1035.3424,-194.5981 1041.3424,-194.5981 1041.3424,-194.5981 1116.2814,-194.5981 1116.2814,-194.5981 1122.2814,-194.5981 1128.2814,-200.5981 1128.2814,-206.5981 1128.2814,-206.5981 1128.2814,-223.8019 1128.2814,-223.8019 1128.2814,-229.8019 1122.2814,-235.8019 1116.2814,-235.8019"/>
          <text text-anchor="middle" x="1078.8119" y="-219.4" font-family="Helvetica,sans-Serif" font-size="14.00" fill="#000000">CytoB </text>
          <text text-anchor="middle" x="1078.8119" y="-202.6" font-family="Helvetica,sans-Serif" font-size="14.00" fill="#000000"> Identification</text>
        </a>
      </g>
    </g>
    <!-- 22&#45;&gt;23 -->
    <g id="edge31" class="edge">
      <title>22-&gt;23</title>
      <path fill="none" stroke="#000000" stroke-width="3" d="M919.7463,-215.2C950.4679,-215.2 988.0998,-215.2 1019.0467,-215.2"/>
      <polygon fill="#000000" stroke="#000000" stroke-width="3" points="1029.2659,-215.2 1019.2659,-219.7001 1024.2659,-216.2 1019.2659,-216.2001 1019.2659,-215.2001 1019.2659,-214.2001 1024.2659,-214.2 1019.2659,-210.7001 1029.2659,-215.2 1029.2659,-215.2"/>
    </g>
    <!-- 25 -->
    <g id="node25" class="node">
      <title>25</title>
      <g id="a_node25">
        <a xlink:title="- Action: Carcass Stored (-80C)&#10;- Delivery: Delta Smelt &#10;USFWS &#10; CDFW &#10; Fish Collection Facilities&#10;- Dissection: UCD Aquatic  &#10; Health Program&#10;- Laboratory: UCD Aquatic  &#10; Health Program &#10; Dissection&#10;- Preservation: Liquid &#10; Nitrogen&#10;- Processing: DOP Subsampling&#10;- Stage: Non-larvae">
          <path fill="#ffffff" stroke="#000000" d="M1125.7109,-171.8019C1125.7109,-171.8019 1031.9129,-171.8019 1031.9129,-171.8019 1025.9129,-171.8019 1019.9129,-165.8019 1019.9129,-159.8019 1019.9129,-159.8019 1019.9129,-142.5981 1019.9129,-142.5981 1019.9129,-136.5981 1025.9129,-130.5981 1031.9129,-130.5981 1031.9129,-130.5981 1125.7109,-130.5981 1125.7109,-130.5981 1131.7109,-130.5981 1137.7109,-136.5981 1137.7109,-142.5981 1137.7109,-142.5981 1137.7109,-159.8019 1137.7109,-159.8019 1137.7109,-165.8019 1131.7109,-171.8019 1125.7109,-171.8019"/>
          <text text-anchor="middle" x="1078.8119" y="-155.4" font-family="Helvetica,sans-Serif" font-size="14.00" fill="#000000">UCD Aquatic  </text>
          <text text-anchor="middle" x="1078.8119" y="-138.6" font-family="Helvetica,sans-Serif" font-size="14.00" fill="#000000"> Health Program</text>
        </a>
      </g>
    </g>
    <!-- 24&#45;&gt;25 -->
    <g id="edge32" class="edge">
      <title>24-&gt;25</title>
      <path fill="none" stroke="#000000" stroke-width="3" d="M939.6569,-150.5596C962.5535,-150.665 987.417,-150.7794 1009.7086,-150.882"/>
      <polygon fill="#000000" stroke="#000000" stroke-width="3" points="1019.7534,-150.9282 1009.7328,-155.382 1014.7489,-151.9051 1009.7489,-151.8821 1009.7535,-150.8821 1009.7581,-149.8821 1014.7581,-149.9052 1009.7743,-146.3821 1019.7534,-150.9282 1019.7534,-150.9282"/>
    </g>
    <!-- 27 -->
    <g id="node27" class="node">
      <title>27</title>
      <g id="a_node27">
        <a xlink:title="- name: Any life Stage">
          <path fill="#ffffff" stroke="#000000" d="M463.6695,-123.2C463.6695,-123.2 384.9447,-123.2 384.9447,-123.2 378.9447,-123.2 372.9447,-117.2 372.9447,-111.2 372.9447,-111.2 372.9447,-99.2 372.9447,-99.2 372.9447,-93.2 378.9447,-87.2 384.9447,-87.2 384.9447,-87.2 463.6695,-87.2 463.6695,-87.2 469.6695,-87.2 475.6695,-93.2 475.6695,-99.2 475.6695,-99.2 475.6695,-111.2 475.6695,-111.2 475.6695,-117.2 469.6695,-123.2 463.6695,-123.2"/>
          <text text-anchor="middle" x="424.3071" y="-101" font-family="Helvetica,sans-Serif" font-size="14.00" fill="#000000">Any life Stage</text>
        </a>
      </g>
    </g>
    <!-- 26&#45;&gt;27 -->
    <g id="edge5" class="edge">
      <title>26-&gt;27</title>
      <path fill="none" stroke="#000000" stroke-width="3" d="M326.2744,-123.8122C338.1786,-121.5521 350.8482,-119.1467 362.9892,-116.8417"/>
      <polygon fill="#000000" stroke="#000000" stroke-width="3" points="373.0349,-114.9344 364.0498,-121.2208 368.3092,-116.8495 363.3969,-117.7822 363.2104,-116.7998 363.0239,-115.8173 367.9361,-114.8846 362.371,-112.3787 373.0349,-114.9344 373.0349,-114.9344"/>
    </g>
    <!-- 28 -->
    <g id="node28" class="node">
      <title>28</title>
      <g id="a_node28">
        <a xlink:title="- name: Liquid &#10; Nitrogen">
          <path fill="#ffffff" stroke="#000000" d="M572.1664,-125.8019C572.1664,-125.8019 523.595,-125.8019 523.595,-125.8019 517.595,-125.8019 511.595,-119.8019 511.595,-113.8019 511.595,-113.8019 511.595,-96.5981 511.595,-96.5981 511.595,-90.5981 517.595,-84.5981 523.595,-84.5981 523.595,-84.5981 572.1664,-84.5981 572.1664,-84.5981 578.1664,-84.5981 584.1664,-90.5981 584.1664,-96.5981 584.1664,-96.5981 584.1664,-113.8019 584.1664,-113.8019 584.1664,-119.8019 578.1664,-125.8019 572.1664,-125.8019"/>
          <text text-anchor="middle" x="547.8807" y="-109.4" font-family="Helvetica,sans-Serif" font-size="14.00" fill="#000000">Liquid </text>
          <text text-anchor="middle" x="547.8807" y="-92.6" font-family="Helvetica,sans-Serif" font-size="14.00" fill="#000000"> Nitrogen</text>
        </a>
      </g>
    </g>
    <!-- 27&#45;&gt;28 -->
    <g id="edge9" class="edge">
      <title>27-&gt;28</title>
      <path fill="none" stroke="#000000" stroke-width="3" d="M475.6399,-105.2C484.22,-105.2 493.0772,-105.2 501.5233,-105.2"/>
      <polygon fill="#000000" stroke="#000000" stroke-width="3" points="511.5758,-105.2 501.5758,-109.7001 506.5758,-106.2 501.5758,-106.2001 501.5758,-105.2001 501.5757,-104.2001 506.5757,-104.2 501.5757,-100.7001 511.5758,-105.2 511.5758,-105.2"/>
    </g>
    <!-- 32 -->
    <g id="node32" class="node">
      <title>32</title>
      <g id="a_node32">
        <a xlink:title="- name: ETOH">
          <path fill="#ffffff" stroke="#000000" d="M563.2672,-57.2C563.2672,-57.2 532.4942,-57.2 532.4942,-57.2 526.4942,-57.2 520.4942,-51.2 520.4942,-45.2 520.4942,-45.2 520.4942,-33.2 520.4942,-33.2 520.4942,-27.2 526.4942,-21.2 532.4942,-21.2 532.4942,-21.2 563.2672,-21.2 563.2672,-21.2 569.2672,-21.2 575.2672,-27.2 575.2672,-33.2 575.2672,-33.2 575.2672,-45.2 575.2672,-45.2 575.2672,-51.2 569.2672,-57.2 563.2672,-57.2"/>
          <text text-anchor="middle" x="547.8807" y="-35" font-family="Helvetica,sans-Serif" font-size="14.00" fill="#000000">ETOH</text>
        </a>
      </g>
    </g>
    <!-- 27&#45;&gt;32 -->
    <g id="edge10" class="edge">
      <title>27-&gt;32</title>
      <path fill="none" stroke="#000000" stroke-width="3" d="M458.0741,-87.1652C474.5949,-78.3415 494.5066,-67.7068 511.3785,-58.6957"/>
      <polygon fill="#000000" stroke="#000000" stroke-width="3" points="520.3982,-53.8783 513.6974,-62.5588 516.4589,-57.1159 512.0485,-59.4715 511.5774,-58.5894 511.1063,-57.7074 515.5167,-55.3518 509.4574,-54.6201 520.3982,-53.8783 520.3982,-53.8783"/>
    </g>
    <!-- 29 -->
    <g id="node29" class="node">
      <title>29</title>
      <g id="a_node29">
        <a xlink:title="- name: GVL &#10; DNA &#10; Extraction">
          <path fill="#ffffff" stroke="#000000" d="M710.2917,-134.6014C710.2917,-134.6014 652.0447,-134.6014 652.0447,-134.6014 646.0447,-134.6014 640.0447,-128.6014 640.0447,-122.6014 640.0447,-122.6014 640.0447,-87.7986 640.0447,-87.7986 640.0447,-81.7986 646.0447,-75.7986 652.0447,-75.7986 652.0447,-75.7986 710.2917,-75.7986 710.2917,-75.7986 716.2917,-75.7986 722.2917,-81.7986 722.2917,-87.7986 722.2917,-87.7986 722.2917,-122.6014 722.2917,-122.6014 722.2917,-128.6014 716.2917,-134.6014 710.2917,-134.6014"/>
          <text text-anchor="middle" x="681.1682" y="-117.8" font-family="Helvetica,sans-Serif" font-size="14.00" fill="#000000">GVL </text>
          <text text-anchor="middle" x="681.1682" y="-101" font-family="Helvetica,sans-Serif" font-size="14.00" fill="#000000"> DNA </text>
          <text text-anchor="middle" x="681.1682" y="-84.2" font-family="Helvetica,sans-Serif" font-size="14.00" fill="#000000"> Extraction</text>
        </a>
      </g>
    </g>
    <!-- 28&#45;&gt;29 -->
    <g id="edge14" class="edge">
      <title>28-&gt;29</title>
      <path fill="none" stroke="#000000" stroke-width="3" d="M584.3021,-105.2C598.3303,-105.2 614.6251,-105.2 629.8026,-105.2"/>
      <polygon fill="#000000" stroke="#000000" stroke-width="3" points="640.09,-105.2 630.09,-109.7001 635.09,-106.2 630.09,-106.2001 630.09,-105.2001 630.09,-104.2001 635.09,-104.2 630.0899,-100.7001 640.09,-105.2 640.09,-105.2"/>
    </g>
    <!-- 30 -->
    <g id="node30" class="node">
      <title>30</title>
      <g id="a_node30">
        <a xlink:title="- name: Archive GVL">
          <path fill="#ffffff" stroke="#000000" d="M896.585,-113.2C896.585,-113.2 826.4442,-113.2 826.4442,-113.2 820.4442,-113.2 814.4442,-107.2 814.4442,-101.2 814.4442,-101.2 814.4442,-89.2 814.4442,-89.2 814.4442,-83.2 820.4442,-77.2 826.4442,-77.2 826.4442,-77.2 896.585,-77.2 896.585,-77.2 902.585,-77.2 908.585,-83.2 908.585,-89.2 908.585,-89.2 908.585,-101.2 908.585,-101.2 908.585,-107.2 902.585,-113.2 896.585,-113.2"/>
          <text text-anchor="middle" x="861.5146" y="-91" font-family="Helvetica,sans-Serif" font-size="14.00" fill="#000000">Archive GVL</text>
        </a>
      </g>
    </g>
    <!-- 29&#45;&gt;30 -->
    <g id="edge23" class="edge">
      <title>29-&gt;30</title>
      <path fill="none" stroke="#000000" stroke-width="3" d="M722.5433,-102.9058C746.6884,-101.567 777.5131,-99.8578 803.9942,-98.3894"/>
      <polygon fill="#000000" stroke="#000000" stroke-width="3" points="814.2844,-97.8189 804.5489,-102.8657 809.3475,-99.0942 804.3551,-99.3711 804.2998,-98.3726 804.2444,-97.3741 809.2367,-97.0973 804.0506,-93.8795 814.2844,-97.8189 814.2844,-97.8189"/>
    </g>
    <!-- 31 -->
    <g id="node31" class="node">
      <title>31</title>
      <g id="a_node31">
        <a xlink:title="- Action: Archive GVL&#10;- Delivery: Delta Smelt &#10;USFWS &#10; CDFW &#10; Fish Collection Facilities&#10;- Dissection: Extraction Stored (-80C)&#10;- Laboratory: GVL &#10; DNA &#10; Extraction&#10;- Preservation: Liquid &#10; Nitrogen&#10;- Processing: Sherlock Swab&#10;- Stage: Any life Stage">
          <path fill="#ffffff" stroke="#000000" d="M1150.2151,-112.2C1150.2151,-112.2 1007.4087,-112.2 1007.4087,-112.2 1001.4087,-112.2 995.4087,-106.2 995.4087,-100.2 995.4087,-100.2 995.4087,-88.2 995.4087,-88.2 995.4087,-82.2 1001.4087,-76.2 1007.4087,-76.2 1007.4087,-76.2 1150.2151,-76.2 1150.2151,-76.2 1156.2151,-76.2 1162.2151,-82.2 1162.2151,-88.2 1162.2151,-88.2 1162.2151,-100.2 1162.2151,-100.2 1162.2151,-106.2 1156.2151,-112.2 1150.2151,-112.2"/>
          <text text-anchor="middle" x="1078.8119" y="-90" font-family="Helvetica,sans-Serif" font-size="14.00" fill="#000000">Extraction Stored (-80C)</text>
        </a>
      </g>
    </g>
    <!-- 30&#45;&gt;31 -->
    <g id="edge33" class="edge">
      <title>30-&gt;31</title>
      <path fill="none" stroke="#000000" stroke-width="3" d="M908.6649,-94.983C931.1333,-94.8796 958.8337,-94.7521 985.3102,-94.6303"/>
      <polygon fill="#000000" stroke="#000000" stroke-width="3" points="995.3842,-94.5839 985.405,-99.13 990.3888,-95.607 985.3889,-95.63 985.3843,-94.6301 985.3796,-93.6301 990.3796,-93.607 985.3635,-90.1301 995.3842,-94.5839 995.3842,-94.5839"/>
    </g>
    <!-- 33 -->
    <g id="node33" class="node">
      <title>33</title>
      <g id="a_node33">
        <a xlink:title="- name: GVL &#10; DNA &#10; Extraction">
          <path fill="#ffffff" stroke="#000000" d="M710.2917,-58.6014C710.2917,-58.6014 652.0447,-58.6014 652.0447,-58.6014 646.0447,-58.6014 640.0447,-52.6014 640.0447,-46.6014 640.0447,-46.6014 640.0447,-11.7986 640.0447,-11.7986 640.0447,-5.7986 646.0447,.2014 652.0447,.2014 652.0447,.2014 710.2917,.2014 710.2917,.2014 716.2917,.2014 722.2917,-5.7986 722.2917,-11.7986 722.2917,-11.7986 722.2917,-46.6014 722.2917,-46.6014 722.2917,-52.6014 716.2917,-58.6014 710.2917,-58.6014"/>
          <text text-anchor="middle" x="681.1682" y="-41.8" font-family="Helvetica,sans-Serif" font-size="14.00" fill="#000000">GVL </text>
          <text text-anchor="middle" x="681.1682" y="-25" font-family="Helvetica,sans-Serif" font-size="14.00" fill="#000000"> DNA </text>
          <text text-anchor="middle" x="681.1682" y="-8.2" font-family="Helvetica,sans-Serif" font-size="14.00" fill="#000000"> Extraction</text>
        </a>
      </g>
    </g>
    <!-- 32&#45;&gt;33 -->
    <g id="edge15" class="edge">
      <title>32-&gt;33</title>
      <path fill="none" stroke="#000000" stroke-width="3" d="M575.498,-37.128C591.1962,-35.9502 611.3551,-34.4378 629.8493,-33.0502"/>
      <polygon fill="#000000" stroke="#000000" stroke-width="3" points="639.9137,-32.2952 630.2784,-37.5308 635.0025,-33.6665 630.0165,-34.0406 629.9417,-33.0434 629.8669,-32.0462 634.8529,-31.6721 629.605,-28.556 639.9137,-32.2952 639.9137,-32.2952"/>
    </g>
    <!-- 34 -->
    <g id="node34" class="node">
      <title>34</title>
      <g id="a_node34">
        <a xlink:title="- name: Species ID Call &#10; mitocondrial">
          <path fill="#ffffff" stroke="#000000" d="M907.0778,-49.8019C907.0778,-49.8019 815.9514,-49.8019 815.9514,-49.8019 809.9514,-49.8019 803.9514,-43.8019 803.9514,-37.8019 803.9514,-37.8019 803.9514,-20.5981 803.9514,-20.5981 803.9514,-14.5981 809.9514,-8.5981 815.9514,-8.5981 815.9514,-8.5981 907.0778,-8.5981 907.0778,-8.5981 913.0778,-8.5981 919.0778,-14.5981 919.0778,-20.5981 919.0778,-20.5981 919.0778,-37.8019 919.0778,-37.8019 919.0778,-43.8019 913.0778,-49.8019 907.0778,-49.8019"/>
          <text text-anchor="middle" x="861.5146" y="-33.4" font-family="Helvetica,sans-Serif" font-size="14.00" fill="#000000">Species ID Call </text>
          <text text-anchor="middle" x="861.5146" y="-16.6" font-family="Helvetica,sans-Serif" font-size="14.00" fill="#000000"> mitocondrial</text>
        </a>
      </g>
    </g>
    <!-- 33&#45;&gt;34 -->
    <g id="edge24" class="edge">
      <title>33-&gt;34</title>
      <path fill="none" stroke="#000000" stroke-width="3" d="M722.5433,-29.2C743.6539,-29.2 769.8707,-29.2 793.8261,-29.2"/>
      <polygon fill="#000000" stroke="#000000" stroke-width="3" points="803.9328,-29.2 793.9328,-33.7001 798.9328,-30.2 793.9328,-30.2001 793.9328,-29.2001 793.9327,-28.2001 798.9327,-28.2 793.9327,-24.7001 803.9328,-29.2 803.9328,-29.2"/>
    </g>
    <!-- 35 -->
    <g id="node35" class="node">
      <title>35</title>
      <g id="a_node35">
        <a xlink:title="- Action: Species ID Call &#10; mitocondrial&#10;- Delivery: Delta Smelt &#10;USFWS &#10; CDFW &#10; Fish Collection Facilities&#10;- Dissection: ID Data to &#10;USFWS &amp; CDFW&#10;- Laboratory: GVL &#10; DNA &#10; Extraction&#10;- Preservation: ETOH&#10;- Processing: Sherlock Swab&#10;- Stage: Any life Stage">
          <path fill="#ffffff" stroke="#000000" d="M1129.4576,-49.8019C1129.4576,-49.8019 1028.1662,-49.8019 1028.1662,-49.8019 1022.1662,-49.8019 1016.1662,-43.8019 1016.1662,-37.8019 1016.1662,-37.8019 1016.1662,-20.5981 1016.1662,-20.5981 1016.1662,-14.5981 1022.1662,-8.5981 1028.1662,-8.5981 1028.1662,-8.5981 1129.4576,-8.5981 1129.4576,-8.5981 1135.4576,-8.5981 1141.4576,-14.5981 1141.4576,-20.5981 1141.4576,-20.5981 1141.4576,-37.8019 1141.4576,-37.8019 1141.4576,-43.8019 1135.4576,-49.8019 1129.4576,-49.8019"/>
          <text text-anchor="middle" x="1078.8119" y="-33.4" font-family="Helvetica,sans-Serif" font-size="14.00" fill="#000000">ID Data to </text>
          <text text-anchor="middle" x="1078.8119" y="-16.6" font-family="Helvetica,sans-Serif" font-size="14.00" fill="#000000">USFWS &amp; CDFW</text>
        </a>
      </g>
    </g>
    <!-- 34&#45;&gt;35 -->
    <g id="edge34" class="edge">
      <title>34-&gt;35</title>
      <path fill="none" stroke="#000000" stroke-width="3" d="M919.1758,-29.2C945.7153,-29.2 977.5041,-29.2 1005.7034,-29.2"/>
      <polygon fill="#000000" stroke="#000000" stroke-width="3" points="1015.9138,-29.2 1005.9138,-33.7001 1010.9138,-30.2 1005.9138,-30.2001 1005.9138,-29.2001 1005.9138,-28.2001 1010.9138,-28.2 1005.9137,-24.7001 1015.9138,-29.2 1015.9138,-29.2"/>
    </g>
  </g>
</svg>
